<svg version="1.1" id="Layer_1" xmlns="http://www.w3.org/2000/svg" xmlns:xlink="http://www.w3.org/1999/xlink" x="0px" y="0px"
	 viewBox="0 0 70.4 70" style="enable-background:new 0 0 70.4 70;" xml:space="preserve">
<circle style="fill:none;stroke:#FFFFFF;stroke-width:1.5;stroke-miterlimit:10;" cx="35.3" cy="35" r="33.9"/>
<polyline style="fill:none;stroke:#FFFFFF;stroke-width:1.5;stroke-miterlimit:10;" points="48.1,32.6 48.1,54.5 22.1,54.5
	22.1,15.9 48.1,15.9 48.1,26 "/>
<polyline style="fill:none;stroke:#FFFFFF;stroke-width:1.5;stroke-miterlimit:10;" points="34.6,46 52.4,19.6 55.4,21.6 37.6,48.1
	"/>
<polyline style="fill:none;stroke:#FFFFFF;stroke-width:1.5;stroke-miterlimit:10;" points="35.5,44.6 34.4,46.3 33.9,50.3
	33.9,50.3 37.4,48.3 38.2,47.1 "/>
<line style="fill:none;stroke:#FFFFFF;stroke-width:1.5;stroke-miterlimit:10;" x1="29.1" y1="22.1" x2="43.1" y2="22.1"/>
<line style="fill:none;stroke:#FFFFFF;stroke-width:1.5;stroke-miterlimit:10;" x1="29.1" y1="27" x2="43.1" y2="27"/>
<line style="fill:none;stroke:#FFFFFF;stroke-width:1.5;stroke-miterlimit:10;" x1="29.1" y1="31.8" x2="38" y2="31.8"/>
<line style="fill:none;stroke:#FFFFFF;stroke-width:1.5;stroke-miterlimit:10;" x1="20.4" y1="19.5" x2="24.5" y2="19.5"/>
<line style="fill:none;stroke:#FFFFFF;stroke-width:1.5;stroke-miterlimit:10;" x1="20.4" y1="25.9" x2="24.5" y2="25.9"/>
<line style="fill:none;stroke:#FFFFFF;stroke-width:1.5;stroke-miterlimit:10;" x1="20.4" y1="25.9" x2="24.5" y2="25.9"/>
<line style="fill:none;stroke:#FFFFFF;stroke-width:1.5;stroke-miterlimit:10;" x1="20.4" y1="32.2" x2="24.5" y2="32.2"/>
<line style="fill:none;stroke:#FFFFFF;stroke-width:1.5;stroke-miterlimit:10;" x1="20.4" y1="38.6" x2="24.5" y2="38.6"/>
<line style="fill:none;stroke:#FFFFFF;stroke-width:1.5;stroke-miterlimit:10;" x1="20.4" y1="44.9" x2="24.5" y2="44.9"/>
<line style="fill:none;stroke:#FFFFFF;stroke-width:1.5;stroke-miterlimit:10;" x1="20.4" y1="51.3" x2="24.5" y2="51.3"/>
</svg>
