<svg version="1.1" id="Layer_1" xmlns="http://www.w3.org/2000/svg" xmlns:xlink="http://www.w3.org/1999/xlink" x="0px" y="0px"
	 viewBox="0 0 69.7 69.7" style="enable-background:new 0 0 69.7 69.7;" xml:space="preserve">
<g>
	<circle style="fill:none;stroke:#f09e6f;stroke-width:1.5;stroke-miterlimit:10;" cx="34.4" cy="34.8" r="33.9"/>
	<line style="fill:none;stroke:#f09e6f;stroke-width:1.5;stroke-miterlimit:10;" x1="9.9" y1="59.2" x2="58.8" y2="10.3"/>
</g>
<g>
	<g transform="translate(0,-952.36218)">
		<path style="fill:#f09e6f;stroke:#f09e6f;stroke-width:0.5;stroke-miterlimit:10;" d="M19.7,969.8c-0.5,3.3,0.5,6.4,2.5,8.7
			l0.6,5.9c0,0.3,0.2,0.5,0.5,0.5l3.5,0.6l-2.4,3.3c-0.1,0.1-0.1,0.2-0.1,0.2c0,0.3,0.2,0.6,0.5,0.6c0.2,0,0.4-0.1,0.5-0.2l2.7-3.7
			l4,0.7c0.2,0,0.5-0.1,0.6-0.3l2.5-5.4c2.7-1.5,4.7-4.1,5.3-7.4c1-5.7-2.9-11.1-8.6-12.1S20.6,964.1,19.7,969.8z M20.7,970
			c0.9-5.1,5.7-8.6,10.8-7.7c5.1,0.9,8.6,5.7,7.7,10.8c-0.5,3-2.4,5.4-4.9,6.7c-0.1,0.1-0.2,0.1-0.2,0.3l-2.4,5.2l-7.9-1.3l-0.6-5.7
			c0-0.1-0.1-0.2-0.1-0.3C21.2,975.9,20.2,973,20.7,970z M24,970.6c-0.6,3.3,1.7,6.4,5,7c3.3,0.6,6.4-1.7,7-5c0.6-3.3-1.7-6.4-5-7
			C27.7,965,24.6,967.3,24,970.6z M25.1,970.8c0.5-2.7,3-4.5,5.7-4.1c2.7,0.5,4.5,3,4.1,5.7c-0.5,2.7-3,4.5-5.7,4.1
			C26.5,976,24.6,973.5,25.1,970.8z M22.9,991.9c0,0,0,0.1,0,0.2l-1.2,4.4c-0.1,0.3,0.1,0.6,0.4,0.7c0.3,0.1,0.6-0.1,0.7-0.4
			l1.2-4.4c0.1-0.3,0-0.6-0.3-0.7C23.3,991.5,23,991.7,22.9,991.9z M25.6,997.8C25.6,997.8,25.6,997.8,25.6,997.8
			c0,0.3,0.2,0.6,0.5,0.6l3.8,0.6l-0.6,3.8c0,0,0,0,0,0.1c0,0.2,0.1,0.5,0.3,0.5l5.4,2.5c1.5,2.7,4.1,4.7,7.4,5.2
			c5.7,1,11.1-2.9,12.1-8.6s-2.9-11.1-8.6-12.1c-3.3-0.5-6.4,0.5-8.7,2.5l-6,0.6c-0.3,0-0.5,0.2-0.5,0.5l-0.6,3.8l-3.8-0.6
			C25.9,997.2,25.6,997.4,25.6,997.8C25.6,997.7,25.6,997.7,25.6,997.8z M30.4,1002.6l1.3-7.9l5.7-0.6c0.1,0,0.2-0.1,0.3-0.2
			c2.1-1.9,5-2.9,8-2.4c5.1,0.9,8.6,5.7,7.7,10.8s-5.7,8.6-10.8,7.7c-3-0.5-5.4-2.4-6.7-4.9c-0.1-0.1-0.1-0.2-0.3-0.3L30.4,1002.6z
			 M38.1,999.8c-0.6,3.3,1.7,6.4,5,7c3.3,0.6,6.4-1.7,7-5c0.6-3.3-1.7-6.4-5-7C41.8,994.3,38.7,996.5,38.1,999.8z M39.2,1000
			c0.5-2.7,3-4.5,5.7-4.1c2.7,0.5,4.5,3,4.1,5.7c-0.5,2.7-3,4.5-5.7,4.1C40.6,1005.3,38.7,1002.7,39.2,1000z"/>
	</g>

		<ellipse transform="matrix(0.1648 -0.9863 0.9863 0.1648 -18.0211 72.5519)" style="fill:#f09e6f;stroke:#f09e6f;stroke-width:0.5;stroke-miterlimit:10;" cx="33.8" cy="46.9" rx="0.8" ry="0.8"/>

		<ellipse transform="matrix(0.1659 -0.9861 0.9861 0.1659 -5.3156 52.0584)" style="fill:#f09e6f;stroke:#f09e6f;stroke-width:0.5;stroke-miterlimit:10;" cx="28.1" cy="29.2" rx="0.8" ry="0.8"/>
</g>
</svg>
