<svg version="1.1" id="Layer_1" xmlns="http://www.w3.org/2000/svg" xmlns:xlink="http://www.w3.org/1999/xlink" x="0px" y="0px"
	 viewBox="0 0 69.7 69.7" style="enable-background:new 0 0 69.7 69.7;" xml:space="preserve">
<circle style="fill:none;stroke:#f09e6f;stroke-width:1.5;stroke-miterlimit:10;" cx="34.6" cy="34.7" r="33.9"/>
<g>
	<path id="XMLID_59_" style="fill:none;stroke:#f09e6f;stroke-width:1.5;stroke-miterlimit:10;" d="M24.9,43l-1.3,1.3
		c-0.9,0.9-2.4,0.9-3.3,0l0,0c-0.9-0.9-0.9-2.4,0-3.3l1.3-1.3c0.9-0.9,2.4-0.9,3.3,0l0,0C25.8,40.6,25.8,42.1,24.9,43z"/>
	<path id="XMLID_58_" style="fill:none;stroke:#f09e6f;stroke-width:1.5;stroke-miterlimit:10;" d="M28.2,46.3l-1.3,1.3
		c-0.9,0.9-2.4,0.9-3.3,0l0,0c-0.9-0.9-0.9-2.4,0-3.3L25,43c0.9-0.9,2.4-0.9,3.3,0l0,0C29.1,43.9,29.1,45.4,28.2,46.3z"/>
	<path id="XMLID_57_" style="fill:none;stroke:#f09e6f;stroke-width:1.5;stroke-miterlimit:10;" d="M31.5,49.6l-1.3,1.3
		c-0.9,0.9-2.4,0.9-3.3,0l0,0c-0.9-0.9-0.9-2.4,0-3.3l1.3-1.3c0.9-0.9,2.4-0.9,3.3,0l0,0C32.4,47.2,32.4,48.7,31.5,49.6z"/>
	<path id="XMLID_56_" style="fill:none;stroke:#f09e6f;stroke-width:1.5;stroke-miterlimit:10;" d="M34.8,52.8l-1.3,1.3
		c-0.9,0.9-2.4,0.9-3.3,0l0,0c-0.9-0.9-0.9-2.4,0-3.3l1.3-1.3c0.9-0.9,2.4-0.9,3.3,0l0,0C35.7,50.5,35.7,52,34.8,52.8z"/>
	<path id="XMLID_55_" style="fill:none;stroke:#f09e6f;stroke-width:1.5;stroke-miterlimit:10;" d="M33.8,42l7.6,7.6
		c0.7,0.7,0.7,1.9,0,2.7l-0.6,0.6c-0.7,0.7-1.9,0.7-2.7,0l-3.4-3.4"/>
	<path id="XMLID_54_" style="fill:none;stroke:#f09e6f;stroke-width:1.5;stroke-miterlimit:10;" d="M37,38.8l7.6,7.6
		c0.7,0.7,0.7,1.9,0,2.7l-0.6,0.6c-0.7,0.7-1.9,0.7-2.7,0L33.8,42"/>
	<path id="XMLID_53_" style="fill:none;stroke:#f09e6f;stroke-width:1.5;stroke-miterlimit:10;" d="M40.3,35.5l7.6,7.6
		c0.7,0.7,0.7,1.9,0,2.7l-0.6,0.6c-0.7,0.7-1.9,0.7-2.7,0L37,38.8"/>
	<path id="XMLID_52_" style="fill:none;stroke:#f09e6f;stroke-width:1.5;stroke-miterlimit:10;" d="M43.6,32.2l7.6,7.6
		c0.7,0.7,0.7,1.9,0,2.7l-0.6,0.6c-0.7,0.7-1.9,0.7-2.7,0l-7.6-7.6"/>
	<path id="XMLID_39_" style="fill:none;stroke:#f09e6f;stroke-width:1.5;stroke-miterlimit:10;" d="M35.1,23.3
		c-1.2-0.9-2.1-1.2-2.1-1.2c-2.8-1.2-7.9-3.6-13.5,0.4s-5.7,12.8-1.2,17.3c0,0,0.6,0.6,1.7,1.6"/>
	<path style="fill:none;stroke:#f09e6f;stroke-width:1.5;stroke-miterlimit:10;" d="M35.7,22.8c1-1,7.7-4.9,14.4-0.4
		s4.8,13.1,2.7,15.8c-1,1.4-1.4,1.9-1.4,1.9L39,27.7l-7,7c-0.6,0.6-1.3,0.8-2.1,0.8c-0.8,0-1.5-0.3-2.1-0.9c-1.1-1.1-1.1-3,0-4.1
		L35.7,22.8"/>
</g>
</svg>
