<svg version="1.1" id="Layer_1" xmlns="http://www.w3.org/2000/svg" xmlns:xlink="http://www.w3.org/1999/xlink" x="0px" y="0px"
	 viewBox="0 0 69.7 69.7" style="enable-background:new 0 0 69.7 69.7;" xml:space="preserve">
<g>
	<g>
		<path style="fill:none;stroke:#f09e6f;stroke-width:1.5;stroke-miterlimit:10;" d="M45.6,40.9c0.9,0.4,1.9,0.7,2.9,0.8
			c6.2,0.8,11.9-3.5,12.7-9.7c0.8-6.2-3.5-11.9-9.7-12.7c-2.2-0.3-4.4,0.1-6.3,1"/>
		<g>
			<g>
				<g>
					<path style="fill:none;stroke:#f09e6f;stroke-width:1.5;stroke-miterlimit:10;" d="M51.2,30.1L51.2,30.1c-1.2,0-2.2-0.8-2.5-2
						c-0.3-1.2,0.3-2.4,1.3-2.9c0.8-0.4,1.8-0.4,2.6,0.1c0.8,0.5,1.2,1.3,1.2,2.2"/>
				</g>
			</g>
			<g>
				<g>
					<path style="fill:none;stroke:#f09e6f;stroke-width:1.5;stroke-miterlimit:10;" d="M48,33.2c0,1.3,0.8,2.5,2,3
						c1.2,0.5,2.6,0.1,3.5-0.8c0.8-0.9,1-2.3,0.5-3.4c-0.5-1.1-1.7-1.8-2.9-1.8"/>
				</g>
			</g>
			<line style="fill:none;stroke:#f09e6f;stroke-width:1.5;stroke-miterlimit:10;" x1="51.2" y1="23.7" x2="51.2" y2="37.4"/>
		</g>
	</g>

		<rect id="XMLID_90_" x="18.4" y="13.8" style="fill:none;stroke:#f09e6f;stroke-width:1.5;stroke-miterlimit:10;" width="26.8" height="41.9"/>

		<line id="XMLID_68_" style="fill:none;stroke:#f09e6f;stroke-width:1.5;stroke-miterlimit:10;" x1="39.9" y1="30.1" x2="23.2" y2="30.1"/>

		<line id="XMLID_1_" style="fill:none;stroke:#f09e6f;stroke-width:1.5;stroke-miterlimit:10;" x1="39.9" y1="25.4" x2="23.2" y2="25.4"/>

		<line id="XMLID_3_" style="fill:none;stroke:#f09e6f;stroke-width:1.5;stroke-miterlimit:10;" x1="39.9" y1="25.3" x2="23.2" y2="25.3"/>

		<line id="XMLID_2_" style="fill:none;stroke:#f09e6f;stroke-width:1.5;stroke-miterlimit:10;" x1="39.9" y1="20.7" x2="23.2" y2="20.7"/>

		<line id="XMLID_7_" style="fill:none;stroke:#f09e6f;stroke-width:1.5;stroke-miterlimit:10;" x1="39.9" y1="39.1" x2="23.2" y2="39.1"/>

		<line id="XMLID_6_" style="fill:none;stroke:#f09e6f;stroke-width:1.5;stroke-miterlimit:10;" x1="39.9" y1="34.5" x2="23.2" y2="34.5"/>
	
		<line id="XMLID_5_" style="fill:none;stroke:#f09e6f;stroke-width:1.5;stroke-miterlimit:10;" x1="39.9" y1="34.4" x2="23.2" y2="34.4"/>

		<line id="XMLID_9_" style="fill:none;stroke:#f09e6f;stroke-width:1.5;stroke-miterlimit:10;" x1="31.8" y1="43.8" x2="23.2" y2="43.8"/>

		<line id="XMLID_8_" style="fill:none;stroke:#f09e6f;stroke-width:1.5;stroke-miterlimit:10;" x1="39.9" y1="39.2" x2="23.2" y2="39.2"/>

		<line id="XMLID_4_" style="fill:none;stroke:#f09e6f;stroke-width:1.5;stroke-miterlimit:10;" x1="39.9" y1="39.1" x2="23.2" y2="39.1"/>
	<path id="XMLID_66_" style="fill:none;stroke:#f09e6f;stroke-width:1.5;stroke-miterlimit:10;" d="M44.1,23.8"/>
</g>
<circle style="fill:none;stroke:#f09e6f;stroke-width:1.5;stroke-miterlimit:10;" cx="34.7" cy="34.8" r="33.9"/>
<line style="fill:none;stroke:#f09e6f;stroke-width:1.5;stroke-miterlimit:10;" x1="10.3" y1="10.4" x2="59.2" y2="59.3"/>
</svg>
